<?xml version="1.0"?>
<svg xmlns="http://www.w3.org/2000/svg" id="_x33_0" enable-background="new 0 0 64 64" height="512px" viewBox="0 0 64 64" width="512px"><g><g><g><path d="m22.162 1h-4.324c-5.976 0-10.838 4.862-10.838 10.838 0 1.854.252 3.701.749 5.489l.203.732h.213c.396-1.193 1.509-2.059 2.835-2.059h1v-2c0-2.209 1.791-4 4-4h11.75l.25 1.828v4.172h1c1.326 0 2.439.866 2.835 2.06h.213l.203-.732c.497-1.789.749-3.636.749-5.49 0-5.976-4.862-10.838-10.838-10.838z" fill="#f0bc5e" data-original="#F0BC5E" class="active-path" style="fill:#EB7D16" data-old_color="#f0bc5e"/></g><g><path d="m57 33h-24c-1.103 0-2 .897-2 2v3.449c.624-.285 1.301-.449 2-.449 1.281 0 2.509.509 3.414 1.414 1.016 1.016 1.586 2.393 1.586 3.829v.156c0 1.654-.707 3.23-1.944 4.329l-5.056 4.494v.778c0 1.103.897 2 2 2h24c1.103 0 2-.897 2-2v-18c0-1.103-.897-2-2-2z" fill="#f0bc5e" data-original="#F0BC5E" class="active-path" style="fill:#EB7D16" data-old_color="#f0bc5e"/></g><g><circle cx="16" cy="16" r="1" data-original="#000000" class="" data-old_color="#000000" style="fill:#000000"/><circle cx="24" cy="16" r="1" data-original="#000000" class="" data-old_color="#000000" style="fill:#000000"/><path d="m19 13h2v-1.172c0-2.092-.814-4.058-2.293-5.535l-1.414 1.414c1.101 1.101 1.707 2.564 1.707 4.121z" data-original="#000000" class="" data-old_color="#000000" style="fill:#000000"/><path d="m23 13h2v-1.172c0-2.092-.814-4.058-2.293-5.535l-1.414 1.414c1.101 1.101 1.707 2.564 1.707 4.121z" data-original="#000000" class="" data-old_color="#000000" style="fill:#000000"/><path d="m25 21h-2c0 1.103-.897 2-2 2h-4v2h4c2.206 0 4-1.794 4-4z" data-original="#000000" class="" data-old_color="#000000" style="fill:#000000"/><path d="m63 32c0-1.654-1.346-3-3-3h-30c-1.608 0-2.914 1.274-2.986 2.864-.704-.271-1.425-.499-2.158-.683l-.518-2.591c2.408-.857 4.208-2.993 4.583-5.59h.079c2.206 0 4-1.794 4-4s-1.794-4-4-4v-3.172c0-2.092-.814-4.058-2.293-5.535l-1.414 1.414c1.101 1.101 1.707 2.564 1.707 4.121v10.172c0 2.757-2.243 5-5 5h-4c-2.757 0-5-2.243-5-5v-8c0-1.654 1.346-3 3-3h1v-2h-1c-2.757 0-5 2.243-5 5v1c-2.206 0-4 1.794-4 4s1.794 4 4 4h.08c.374 2.597 2.174 4.733 4.583 5.59l-.52 2.602c-8.231 2.079-14.143 9.586-14.143 18.125v11.683h26c0 1.103.897 2 2 2h32c1.103 0 2-.897 2-2v-2c0-.51-.198-.971-.513-1.324.324-.479.513-1.056.513-1.676zm-32-13c0 1.103-.897 2-2 2v-4c1.103 0 2 .897 2 2zm-22 0c0-1.103.897-2 2-2v4c-1.103 0-2-.897-2-2zm20 13c0-.552.449-1 1-1h30c.551 0 1 .448 1 1v24c0 .552-.449 1-1 1h-30c-.551 0-1-.448-1-1v-.662l7.72-6.863c1.042-.925 1.757-2.144 2.081-3.475h2.522l2.763 6.906 3.031-9.095 2.691 6.279 2.727-4.09h6.465v-2h-7.535l-1.273 1.909-3.309-7.721-2.968 8.905-1.238-3.093h-3.689c-.06-1.622-.713-3.139-1.867-4.293-1.1-1.101-2.564-1.707-4.121-1.707-1.5 0-2.914.563-4 1.589zm22 27v2h-2v-2zm2 0h2v2h-2zm-25.293-18.879 1.293 1.293 1.293-1.293c1.446-1.445 3.968-1.445 5.414 0 .834.834 1.293 1.942 1.293 3.121v.157c0 1.367-.586 2.673-1.608 3.581l-6.392 5.682-6.392-5.682c-1.022-.908-1.608-2.213-1.608-3.581v-.157c0-1.179.459-2.287 1.293-3.121.723-.723 1.685-1.121 2.707-1.121s1.984.398 2.707 1.121zm-9.707-11.121h4c.127 0 .251-.012.376-.019l.57 2.848c-.481.73-1.291 1.171-2.182 1.171h-1.528c-.891 0-1.701-.441-2.182-1.171l.57-2.848c.125.007.249.019.376.019zm-15 22h6v8h-6zm8 8v-16h-2v6h-5.986c.144-7.466 5.33-13.99 12.535-15.85.862 1.154 2.208 1.85 3.687 1.85h1.528c1.482 0 2.832-.7 3.693-1.858.871.224 1.721.518 2.542.878v3.345c-.633-.232-1.304-.365-1.999-.365-1.557 0-3.021.606-4.121 1.707-1.212 1.212-1.879 2.822-1.879 4.535v.157c0 1.938.831 3.788 2.279 5.075l5.721 5.086v2.44c0 .62.189 1.197.513 1.676-.315.353-.513.814-.513 1.324zm18 0h18v2h-18zm28 2v-2h4l.001 2z" data-original="#000000" class="" data-old_color="#000000" style="fill:#000000"/></g></g></g> </svg>
