<?xml version="1.0"?>
<svg xmlns="http://www.w3.org/2000/svg" id="Layer_35" enable-background="new 0 0 64 64" height="512px" viewBox="0 0 64 64" width="512px"><g><path d="m34 1h-10v2h2v3h2v-3h2v3h2v-3h2z" data-original="#000000"/><path d="m30.459 29.336-.459-.177v-4.159h-2v3.39l-8.32-3.2c1.42-1.282 2.32-3.13 2.32-5.19 0-3.86-3.141-7-7-7s-7 3.14-7 7c0 2.233 1.055 4.22 2.688 5.503-2.979 1.036-5.286 3.596-5.894 6.839l-1.683 8.973c-.331 1.765.07 3.546 1.129 5.016.172.238.365.459.568.669h-3.808v16h19.999c.28 0 .561-.029.836-.088 1.047-.224 1.943-.842 2.524-1.74.58-.897.776-1.968.551-3.012l-2.321-10.836c-.745-3.47-3.748-6.045-7.252-6.3l2.407-8.024 9.354 3.717c.471.188.966.283 1.473.283h.465c2.186 0 3.964-1.778 3.964-3.964 0-1.629-1.021-3.116-2.541-3.7zm-20.459-9.336c0-2.757 2.243-5 5-5s5 2.243 5 5-2.243 5-5 5-5-2.243-5-5zm-7 29h6.698l5.069.001 2.321 10.837c.09.418.251.806.459 1.162h-14.547zm26.036-14h-.465c-.251 0-.497-.047-.73-.14l-9.649-3.86h-1.937l-3.599 11.995 2.138.008c2.796.013 5.252 2.007 5.839 4.74l2.321 10.837c.112.522.015 1.057-.275 1.505-.29.449-.739.758-1.262.87-1.047.225-2.146-.483-2.374-1.537l-2.32-10.838c-.199-.915-1.021-1.58-1.956-1.58h-2.767-2.302c-1.573 0-3.007-.687-3.835-1.838-.736-1.021-1.016-2.257-.787-3.479l1.683-8.972c.621-3.31 3.514-5.711 6.881-5.711h5.175l10.927 4.203c.752.289 1.258 1.026 1.258 1.833 0 1.083-.881 1.964-1.964 1.964z" data-original="#000000"/><path d="m32.167 23.621c.167-.442.454-.82.823-1.102l.01-.013v-16.506h-8v17l4 3 3.161-2.371z" fill="#f0bc5e" data-original="#F0BC5E" class="active-path" data-old_color="#f0bc5e" style="fill:#EB7D16"/><path d="m62 17c-2.757 0-5 2.243-5 5v1.919c-1.003-1.098-2.263-1.934-3.68-2.422 1.629-1.283 2.68-3.268 2.68-5.497 0-3.86-3.141-7-7-7s-7 3.14-7 7c0 1.958.81 3.728 2.111 5h-9.611c-1.93 0-3.5 1.57-3.5 3.5s1.568 3.5 3.497 3.5h10.864c.475 0 .887.338.979.804l1.66 8.296c-3.214.51-5.893 2.98-6.6 6.279l-2.311 14.78c-.226 1.046-.029 2.116.551 3.013.581.898 1.478 1.516 2.527 1.741.273.058.553.087.833.087h8v-4h6v4h6v-19-1-26zm-18-1c0-2.757 2.243-5 5-5s5 2.243 5 5-2.243 5-5 5-5-2.243-5-5zm-2.68 44.085c-.29-.448-.388-.982-.265-1.561l2.311-14.781c.587-2.733 3.043-4.728 5.839-4.741l1.214-.006-2.117-10.585c-.279-1.396-1.516-2.411-2.941-2.411h-10.864c-.825 0-1.497-.673-1.497-1.5s.673-1.5 1.5-1.5h15.86c3.045 0 5.691 1.929 6.64 4.808v10.192c0 2.757-2.243 5-5 5h-1.987-.779c-.936 0-1.758.665-1.967 1.637l-2.311 14.782c-.197.916-1.018 1.581-1.955 1.581-.141 0-.282-.015-.416-.043-.525-.113-.975-.422-1.265-.872zm5.124.915c.217-.37.384-.776.478-1.217l1.686-10.783h.392v12zm4.556-12h6v4h-6zm0 8v-2h6v2zm8 4v-12.101c.743-.152 1.416-.482 2-.924v13.025zm2-17c0 1.654-1.346 3-3 3h-9.079l.313-2h.779 1.987c3.859 0 7-3.14 7-7v-16c0-1.304.836-2.416 2-2.829v23.829z" data-original="#000000"/><path d="m25 17h3v2h-3z" data-original="#000000"/><path d="m25 13h5v2h-5z" data-original="#000000"/><path d="m25 9h3v2h-3z" data-original="#000000"/></g> </svg>
