<?xml version="1.0"?>
<svg xmlns="http://www.w3.org/2000/svg" id="line" height="512px" viewBox="0 0 64 64" width="512px" class=""><g><path d="m42 21a21 21 0 1 0 21 21 21.024 21.024 0 0 0 -21-21zm11.625 15.781-15 12a1 1 0 0 1 -1.332-.074l-7-7a1 1 0 0 1 1.414-1.414l6.367 6.367 14.3-11.441a1 1 0 1 1 1.25 1.562z" fill="#c4a2fc" data-original="#C4A2FC" class="" style="fill:#EB7D16" data-old_color="#c4a2fc"/><g fill="#151a6a"><path d="m36 6h-7.184a3 3 0 0 0 -2.816-2h-2.127a4 4 0 0 0 -7.746 0h-2.127a3 3 0 0 0 -2.816 2h-7.184a3 3 0 0 0 -3 3v39a3 3 0 0 0 3 3h32a3 3 0 0 0 3-3v-39a3 3 0 0 0 -3-3zm-22 0h3a1 1 0 0 0 1-1 2 2 0 0 1 4 0 1 1 0 0 0 1 1h3a1 1 0 0 1 0 2h-12a1 1 0 0 1 0-2zm23 42a1 1 0 0 1 -1 1h-32a1 1 0 0 1 -1-1v-39a1 1 0 0 1 1-1h7.184a3 3 0 0 0 2.816 2h12a3 3 0 0 0 2.816-2h7.184a1 1 0 0 1 1 1z" data-original="#151A6A" class="active-path" style="fill:#194C80" data-old_color="#151A6A"/><path d="m17 24a1 1 0 0 0 1 1h4a1 1 0 0 0 1-1v-2.5h2.5a1 1 0 0 0 1-1v-4a1 1 0 0 0 -1-1h-2.5v-2.5a1 1 0 0 0 -1-1h-4a1 1 0 0 0 -1 1v2.5h-2.5a1 1 0 0 0 -1 1v4a1 1 0 0 0 1 1h2.5zm-1.5-4.5v-2h2.5a1 1 0 0 0 1-1v-2.5h2v2.5a1 1 0 0 0 1 1h2.5v2h-2.5a1 1 0 0 0 -1 1v2.5h-2v-2.5a1 1 0 0 0 -1-1z" data-original="#151A6A" class="active-path" style="fill:#194C80" data-old_color="#151A6A"/><path d="m12 27h-5a1 1 0 0 0 -1 1v5a1 1 0 0 0 1 1h5a1 1 0 0 0 1-1v-5a1 1 0 0 0 -1-1zm-1 5h-3v-3h3z" data-original="#151A6A" class="active-path" style="fill:#194C80" data-old_color="#151A6A"/><path d="m12 37h-5a1 1 0 0 0 -1 1v5a1 1 0 0 0 1 1h5a1 1 0 0 0 1-1v-5a1 1 0 0 0 -1-1zm-1 5h-3v-3h3z" data-original="#151A6A" class="active-path" style="fill:#194C80" data-old_color="#151A6A"/><path d="m33 27h-17a1 1 0 0 0 0 2h17a1 1 0 0 0 0-2z" data-original="#151A6A" class="active-path" style="fill:#194C80" data-old_color="#151A6A"/><path d="m16 33h10a1 1 0 0 0 0-2h-10a1 1 0 0 0 0 2z" data-original="#151A6A" class="active-path" style="fill:#194C80" data-old_color="#151A6A"/><path d="m33 37h-17a1 1 0 0 0 0 2h17a1 1 0 0 0 0-2z" data-original="#151A6A" class="active-path" style="fill:#194C80" data-old_color="#151A6A"/><path d="m26 41h-10a1 1 0 0 0 0 2h10a1 1 0 0 0 0-2z" data-original="#151A6A" class="active-path" style="fill:#194C80" data-old_color="#151A6A"/></g></g> </svg>
