<?xml version="1.0"?>
<svg xmlns="http://www.w3.org/2000/svg" xmlns:xlink="http://www.w3.org/1999/xlink" xmlns:svgjs="http://svgjs.com/svgjs" version="1.1" width="512" height="512" x="0" y="0" viewBox="0 0 464 464" style="enable-background:new 0 0 512 512" xml:space="preserve" class=""><g><path xmlns="http://www.w3.org/2000/svg" d="m104 211.289062v9.902344l24 30 24-30v-9.902344c-7.414062 3.015626-15.511719 4.710938-24 4.710938s-16.585938-1.695312-24-4.710938zm0 0" fill="#ffffff" data-original="#000000" style="" class=""/><path xmlns="http://www.w3.org/2000/svg" d="m176 152v-48.449219c-18.703125-2.117187-36.097656-11.574219-48-26.292969-11.902344 14.71875-29.296875 24.175782-48 26.292969v48.449219c0 26.472656 21.527344 48 48 48s48-21.527344 48-48zm0 0" fill="#ffffff" data-original="#000000" style="" class=""/><path xmlns="http://www.w3.org/2000/svg" d="m64 88h8c17.527344 0 34.28125-8.375 44.800781-22.398438l11.199219-14.929687 11.199219 14.921875c10.519531 14.03125 27.273437 22.40625 44.800781 22.40625h8v16.808594c5.945312 1.207031 11.328125 3.847656 16 7.382812v-32.191406c0-44.113281-35.886719-80-80-80s-80 35.886719-80 80v32.191406c4.671875-3.535156 10.054688-6.175781 16-7.382812zm0 0" fill="#ffffff" data-original="#000000" style="" class=""/><path xmlns="http://www.w3.org/2000/svg" d="m183.34375 184c-3.984375 6.863281-9.183594 12.9375-15.34375 17.878906v16.105469l63.519531 18.320313c2.921875.839843 5.726563 2.007812 8.480469 3.3125v-25.417969c-13.246094-11.222657-22.769531-25.703125-27.800781-41.871094-7.238281 7.207031-17.207031 11.671875-28.199219 11.671875zm0 0" fill="#ffffff" data-original="#000000" style="" class=""/><path xmlns="http://www.w3.org/2000/svg" d="m65.878906 167.113281c-1.183594-4.855469-1.878906-9.898437-1.878906-15.113281v-30.527344c-9.289062 3.3125-16 12.113282-16 22.527344 0 11.105469 7.617188 20.382812 17.878906 23.113281zm0 0" fill="#ffffff" data-original="#000000" style="" class=""/><path xmlns="http://www.w3.org/2000/svg" d="m192 121.472656v30.527344c0 5.214844-.695312 10.257812-1.878906 15.113281 10.261718-2.730469 17.878906-12.007812 17.878906-23.113281 0-10.414062-6.710938-19.214844-16-22.527344zm0 0" fill="#ffffff" data-original="#000000" style="" class=""/><path xmlns="http://www.w3.org/2000/svg" d="m275.0625 213.503906c4.289062-12.863281 16.28125-21.503906 29.839844-21.503906 6.234375 0 12.265625 1.832031 17.449218 5.28125 8.289063 5.527344 19.007813 5.527344 27.3125 0 5.175782-3.457031 11.207032-5.28125 17.441407-5.28125 13.558593 0 25.542969 8.640625 29.832031 21.503906l.972656 2.9375c6.746094 1 12.882813 3.773438 18.089844 7.703125v-32.144531c0-44.113281-35.886719-80-80-80s-80 35.886719-80 80v32.144531c5.207031-3.9375 11.351562-6.703125 18.089844-7.703125zm0 0" fill="#ffffff" data-original="#000000" style="" class=""/><path xmlns="http://www.w3.org/2000/svg" d="m400 264c0 5.214844-.695312 10.257812-1.878906 15.113281 10.261718-2.730469 17.878906-12.007812 17.878906-23.113281 0-10.414062-6.710938-19.214844-16-22.527344zm0 0" fill="#ffffff" data-original="#000000" style="" class=""/><path xmlns="http://www.w3.org/2000/svg" d="m312 323.289062v9.902344l24 30 24-30v-9.902344c-7.414062 3.015626-15.511719 4.710938-24 4.710938s-16.585938-1.695312-24-4.710938zm0 0" fill="#ffffff" data-original="#000000" style="" class=""/><path xmlns="http://www.w3.org/2000/svg" d="m384 264v-38.703125l-2.246094-6.738281c-2.105468-6.320313-8-10.558594-14.65625-10.558594-3.066406 0-6.027344.894531-8.5625 2.59375-13.695312 9.125-31.375 9.125-45.0625 0-2.542968-1.699219-5.503906-2.59375-8.570312-2.59375-6.664063 0-12.550782 4.238281-14.65625 10.558594l-2.246094 6.738281v38.703125c0 26.472656 21.527344 48 48 48s48-21.527344 48-48zm0 0" fill="#ffffff" data-original="#000000" style="" class=""/><path xmlns="http://www.w3.org/2000/svg" d="m273.878906 279.113281c-1.183594-4.855469-1.878906-9.898437-1.878906-15.113281v-30.527344c-9.289062 3.3125-16 12.113282-16 22.527344 0 11.105469 7.617188 20.382812 17.878906 23.113281zm0 0" fill="#ffffff" data-original="#000000" style="" class=""/><path xmlns="http://www.w3.org/2000/svg" d="m93.089844 233.167969-64.179688 18.511719c-17.023437 4.914062-28.910156 20.71875-28.910156 38.433593v29.886719h32v-32h16v32h32v-64h31.351562zm0 0" fill="#ffffff" data-original="#000000" style="" class=""/><path xmlns="http://www.w3.org/2000/svg" d="m208 320v-32h16v32h32v-29.886719c0-.832031-.121094-1.632812-.175781-2.457031-8.96875-6.863281-14.886719-17.359375-15.59375-29.320312-3.933594-2.992188-8.398438-5.28125-13.140625-6.648438l-64.179688-18.511719-18.261718 22.824219h31.351562v64zm0 0" fill="#ffffff" data-original="#000000" style="" class=""/><path xmlns="http://www.w3.org/2000/svg" d="m96 352h64v-80h-64zm16-64h32v16h-32zm0 32h32v16h-32zm0 0" fill="#ffffff" data-original="#000000" style="" class=""/><path xmlns="http://www.w3.org/2000/svg" d="m301.089844 345.167969-64.167969 18.511719c-17.035156 4.914062-28.921875 20.71875-28.921875 38.433593v29.886719h32v-32h16v32h32v-64h31.351562zm0 0" fill="#ffffff" data-original="#000000" style="" class=""/><path xmlns="http://www.w3.org/2000/svg" d="m88 217.984375v-16.105469c-6.160156-4.941406-11.351562-11.015625-15.34375-17.878906h-.65625c-11.039062 0-21.046875-4.496094-28.296875-11.761719-5.65625 17.960938-16.703125 34.027344-31.925781 45.457031 5.664062 5.945313 15.621094 14.046876 27.757812 14.257813zm0 0" fill="#ffffff" data-original="#000000" style="" class=""/><path xmlns="http://www.w3.org/2000/svg" d="m304 464h64v-80h-64zm16-64h32v16h-32zm0 32h32v16h-32zm0 0" fill="#ffffff" data-original="#000000" style="" class=""/><path xmlns="http://www.w3.org/2000/svg" d="m435.089844 363.679688-64.167969-18.511719-18.273437 22.832031h31.351562v64h32v-32h16v32h32v-29.886719c0-17.714843-11.886719-33.519531-28.910156-38.433593zm0 0" fill="#ffffff" data-original="#000000" style="" class=""/></g></svg>
