<?xml version="1.0"?>
<svg xmlns="http://www.w3.org/2000/svg" id="Layer_35" enable-background="new 0 0 64 64" height="512px" viewBox="0 0 64 64" width="512px" class=""><g><path d="m22 52h20v6h-20z" fill="#f0bc5e" data-original="#F0BC5E" class="active-path" style="fill:#EB7D16" data-old_color="#f0bc5e"/><path d="m45 57h-26c-2.757 0-5 2.243-5 5v1h36v-1c0-2.757-2.243-5-5-5zm-28.829 4c.413-1.164 1.525-2 2.829-2h26c1.304 0 2.416.836 2.829 2z" data-original="#000000" class=""/><path d="m59 45h-.556c.344-.591.556-1.268.556-2 0-2.206-1.794-4-4-4h-.667l-1.333-1v-6h1.5c1.93 0 3.5-1.57 3.5-3.5v-6.5c0-4.379-3.145-8.033-7.294-8.833 1.405-1.281 2.294-3.12 2.294-5.167 0-3.859-3.141-7-7-7s-7 3.141-7 7c0 1.958.81 3.728 2.111 5h-19.611c-1.403 0-2.607.835-3.165 2.029-.112-.006-.222-.029-.335-.029-3.859 0-7 3.141-7 7 0 2.5 1.322 4.691 3.298 5.93-.247.129-.495.256-.729.412-1.669 1.111-2.829 2.773-3.314 4.702l-1.808-3.073c-.716-1.216-2.037-1.971-3.448-1.971-.71 0-1.411.19-2.026.552-1.899 1.116-2.538 3.571-1.422 5.475l7.391 12.564c2.326 3.953 6.62 6.409 11.205 6.409h38.853c2.206 0 4-1.794 4-4s-1.794-4-4-4zm-20.821-8.584c1.388-.927 3.006-1.416 4.676-1.416 1.812 0 3.61.599 5.061 1.687l3.085 2.313h-16.698zm12.821.084-1.885-1.414c-1.794-1.345-4.016-2.086-6.26-2.086-1.335 0-2.634.278-3.855.766v-5.766h2.051c-.024.165-.051.329-.051.5 0 1.93 1.57 3.5 3.5 3.5h6.5zm-5-20.101-1.119-1.399h2.238zm-1.34 1.527-1.118 1.118-.915-3.659zm4.712-2.54-.914 3.658-1.118-1.118zm-8.372-7.386c0-2.757 2.243-5 5-5s5 2.243 5 5-2.243 5-5 5-5-2.243-5-5zm-19.5 7h18.97l1.988 7.956 3.542-3.542 3.542 3.542 1.878-7.516c2.669.988 4.58 3.552 4.58 6.56v6.5c0 .827-.673 1.5-1.5 1.5h-10c-.827 0-1.5-.673-1.5-1.5s.673-1.5 1.5-1.5h8.5v-6h-2v4h-6.5c-.98 0-1.864.407-2.5 1.058v-.058h-3v-5c0-1.654-1.346-3-3-3h-14.5c-.827 0-1.5-.673-1.5-1.5s.673-1.5 1.5-1.5zm-8.5 7c0-2.757 2.243-5 5-5 .017 0 .034.004.051.004.247 1.69 1.692 2.996 3.449 2.996h1.078c.274.627.422 1.308.422 2 0 2.757-2.243 5-5 5s-5-2.243-5-5zm-.911 14.037c-.128-.731-.118-1.477.03-2.214.314-1.573 1.224-2.929 2.558-3.817.989-.658 2.139-1.006 3.326-1.006 2.014 0 3.879.998 4.991 2.67l.224.337 1.666-1.105-.224-.338c-.755-1.135-1.771-2.033-2.938-2.646 1.966-1.241 3.278-3.427 3.278-5.918 0-.681-.109-1.353-.301-2h11.301c.552 0 1 .448 1 1v5h-3.32l-4.821 3.444 1.162 1.627 4.299-3.071h2.68v6.798l-6.303 4.202h-.414l-3.081-4.622-1.664 1.109 3.675 5.513h.787 1.303 23.697c1.103 0 2 .897 2 2s-.897 2-2 2h-22-5.351c.218-.456.351-.961.351-1.5 0-1.93-1.57-3.5-3.5-3.5h-3.085c-.523 0-1.017-.279-1.286-.729l-2.271-3.786-1.715 1.029 2.271 3.786c.63 1.049 1.779 1.7 3.001 1.7h3.085c.827 0 1.5.673 1.5 1.5s-.673 1.5-1.5 1.5h-4.353c-1.764 0-3.415-.944-4.31-2.465l-3.712-6.311zm46.911 14.963h-38.853c-3.881 0-7.514-2.078-9.481-5.423l-7.391-12.563c-.558-.951-.239-2.18.71-2.737.309-.181.66-.277 1.014-.277.706 0 1.367.378 1.725.985l7.39 12.563c1.236 2.1 3.503 3.409 5.935 3.445v.007h.1 4.351 8.5 22 4c1.103 0 2 .897 2 2s-.897 2-2 2z" data-original="#000000" class=""/><path d="m27 36c-2.206 0-4-1.794-4-4s1.794-4 4-4 4 1.794 4 4-1.794 4-4 4z" fill="#f0bc5e" data-original="#F0BC5E" class="active-path" style="fill:#EB7D16" data-old_color="#f0bc5e"/></g> </svg>
